<?xml version="1.0" standalone="no"?>
<!DOCTYPE svg PUBLIC "-//W3C//DTD SVG 20010904//EN"
 "http://www.w3.org/TR/2001/REC-SVG-20010904/DTD/svg10.dtd">
<svg version="1.0" xmlns="http://www.w3.org/2000/svg"
 width="532.000000pt" height="532.000000pt" viewBox="0 0 532.000000 532.000000"
 preserveAspectRatio="xMidYMid meet">
<metadata>
Created by potrace 1.14, written by Peter Selinger 2001-2017
</metadata>
<g transform="translate(0.000000,532.000000) scale(0.100000,-0.100000)"
fill="#000000" stroke="none">
<path d="M1555 5153 c-56 -12 -125 -37 -125 -44 0 -5 -6 -9 -14 -9 -35 0 -158
-147 -172 -205 -2 -5 -67 -203 -147 -440 l-144 -430 -56 -1 c-137 -4 -248 -34
-334 -91 -97 -64 -136 -122 -213 -318 -28 -71 -55 -139 -60 -150 -25 -54 -158
-454 -186 -560 -1 -5 -7 -23 -12 -40 -17 -54 -7 -158 21 -219 51 -112 140
-214 239 -275 21 -12 38 -27 38 -31 0 -5 -50 -157 -110 -337 -91 -271 -168
-517 -185 -593 -2 -8 -15 -54 -29 -102 -14 -47 -28 -101 -31 -119 -3 -18 -8
-35 -10 -39 -17 -28 -26 -284 -12 -375 25 -176 97 -317 217 -428 33 -31 68
-57 76 -57 8 0 14 -3 14 -8 0 -8 26 -20 130 -63 63 -25 86 -30 215 -46 75 -10
3073 -11 3135 -1 25 3 57 11 73 17 15 6 27 9 27 6 0 -2 33 10 73 27 165 70
293 181 387 339 40 65 96 189 106 234 10 40 15 58 37 125 21 62 57 181 62 200
8 32 112 376 126 415 5 17 12 39 15 50 8 32 10 37 32 110 12 39 22 75 23 80 1
6 6 21 11 35 6 14 27 84 48 155 21 72 48 159 60 195 11 36 22 72 24 80 2 8 5
22 8 30 13 38 41 129 88 290 29 96 55 182 58 190 3 8 6 20 7 25 2 6 24 78 49
160 26 83 49 157 50 165 2 8 11 38 20 65 30 97 80 260 82 270 1 6 12 46 24 90
17 61 23 110 24 210 1 168 -14 235 -73 315 -41 55 -114 111 -128 97 -4 -4
-102 -340 -108 -370 -2 -9 -6 -21 -9 -25 -3 -5 -7 -19 -10 -33 -3 -13 -17 -62
-31 -109 -15 -47 -28 -92 -30 -100 -3 -13 -136 -465 -185 -630 -10 -36 -28
-99 -40 -140 -12 -41 -25 -86 -30 -100 -5 -14 -39 -128 -75 -255 -37 -126 -77
-266 -90 -310 -36 -120 -127 -429 -129 -440 -2 -5 -13 -43 -25 -84 -13 -41
-24 -81 -26 -90 -2 -9 -13 -47 -25 -86 -12 -38 -22 -74 -24 -80 -1 -5 -9 -30
-16 -55 -7 -25 -14 -49 -16 -55 -1 -5 -21 -73 -44 -150 -40 -134 -76 -226 -92
-233 -5 -2 -8 -8 -8 -14 0 -15 -65 -94 -115 -141 -22 -21 -69 -52 -105 -70
l-65 -32 -1558 -1 c-884 -1 -1560 3 -1563 8 -3 4 -9 6 -14 3 -11 -7 -120 33
-141 51 -8 8 -20 14 -25 14 -17 0 -83 78 -108 127 -13 27 -29 76 -35 109 -10
55 -8 220 3 231 3 3 706 6 1563 7 l1558 1 58 23 c75 31 149 90 192 155 28 42
86 192 100 257 4 17 147 479 261 845 21 66 39 125 40 130 2 10 10 36 89 290
26 83 83 267 127 410 44 143 100 325 125 405 24 80 56 181 70 225 13 44 26 87
28 95 2 8 45 146 95 305 85 271 95 312 104 391 3 29 -5 101 -18 154 -13 57
-70 152 -120 203 -116 116 -207 145 -473 147 -103 1 -314 3 -468 5 -1511 19
-2124 24 -2150 18z m1167 -289 c30 -15 50 -46 52 -79 1 -11 -31 -117 -72 -235
-40 -118 -94 -276 -120 -350 -25 -74 -50 -138 -56 -142 -6 -4 -36 -12 -66 -18
-56 -12 -139 -35 -175 -50 -11 -4 -38 -15 -60 -25 -199 -82 -414 -243 -533
-399 -25 -34 -50 -62 -54 -64 -4 -2 -8 -10 -8 -17 0 -8 -6 -20 -14 -28 -8 -7
-28 -41 -45 -74 -78 -155 -114 -298 -113 -438 1 -69 11 -165 18 -177 3 -5 7
-21 10 -36 3 -15 26 -70 51 -122 39 -79 62 -110 132 -181 86 -86 96 -93 187
-139 27 -13 51 -26 53 -27 5 -3 -11 -50 -116 -353 -47 -135 -86 -252 -88 -262
-6 -28 -32 -72 -55 -93 -21 -19 -36 -20 -540 -20 -411 0 -522 3 -542 13 -31
17 -56 59 -53 92 1 14 39 129 84 255 46 127 84 235 85 240 1 6 7 19 13 30 6
11 12 23 12 27 2 11 6 24 39 118 17 47 34 99 40 115 6 17 29 82 52 145 60 167
86 239 140 390 26 74 71 200 100 280 29 80 54 155 57 168 3 12 9 25 14 28 5 3
9 12 9 20 0 8 15 56 34 107 19 51 73 202 121 337 48 135 96 270 108 300 12 30
22 60 23 65 1 6 18 53 37 105 19 52 49 136 67 185 99 280 119 323 141 310 4
-3 10 -1 14 4 3 6 195 10 497 10 407 -1 497 -3 520 -15z m118 -1122 c161 -47
297 -162 348 -292 36 -91 46 -197 29 -310 -5 -36 -38 -133 -50 -147 -5 -7 -7
-13 -3 -13 17 0 -90 -153 -153 -220 -36 -37 -150 -130 -161 -130 -5 0 -15 -6
-22 -13 -35 -33 -191 -96 -294 -118 -59 -12 -251 -20 -269 -10 -5 2 -21 6 -36
8 -47 5 -157 51 -214 89 -144 95 -228 260 -220 432 3 79 4 84 25 162 47 176
213 369 412 479 71 40 214 89 281 97 29 4 54 8 56 10 12 11 214 -7 271 -24z"/>
<path d="M1891 4643 c-21 -18 -101 -232 -101 -271 0 -36 31 -42 199 -42 132 0
162 3 175 16 9 8 17 20 17 25 2 12 4 20 13 44 7 19 18 51 29 85 2 8 4 17 5 20
0 3 7 22 15 43 18 42 10 80 -18 91 -9 3 -83 6 -165 6 -126 0 -151 -3 -169 -17z"/>
<path d="M2577 3564 c-1 -1 -22 -4 -47 -7 -176 -23 -367 -147 -436 -285 -10
-20 -24 -44 -30 -52 -13 -17 -33 -97 -38 -153 -4 -38 -4 -38 18 -20 11 10 23
21 26 24 3 4 27 17 53 29 148 69 341 -29 364 -184 2 -17 6 -40 7 -51 5 -30
-22 -126 -41 -147 -9 -10 -13 -19 -10 -19 24 -5 36 -4 72 4 22 5 50 11 61 13
33 6 125 50 171 81 111 76 184 169 224 285 71 209 -40 410 -256 467 -36 9
-132 20 -138 15z"/>
</g>
</svg>
