<svg xmlns="http://www.w3.org/2000/svg" viewBox="0 0 132.89 124.8"><defs><style>.cls-1{fill:#241f21;}.cls-2{fill:#fff;}.cls-3{fill:#df1f26;}</style></defs><g id="Camada_2" data-name="Camada 2"><g id="Camada_1-2" data-name="Camada 1"><path class="cls-1" d="M55,12.54H48a1.31,1.31,0,0,0-1.23.86l-2,5.57A1.31,1.31,0,0,0,46,20.73h7.12a1.31,1.31,0,0,0,1.24-.89l1.91-5.57A1.31,1.31,0,0,0,55,12.54Zm0,0H48a1.31,1.31,0,0,0-1.23.86l-2,5.57A1.31,1.31,0,0,0,46,20.73h7.12a1.31,1.31,0,0,0,1.24-.89l1.91-5.57A1.31,1.31,0,0,0,55,12.54Zm0,0H48a1.31,1.31,0,0,0-1.23.86l-2,5.57A1.31,1.31,0,0,0,46,20.73h7.12a1.31,1.31,0,0,0,1.24-.89l1.91-5.57A1.31,1.31,0,0,0,55,12.54Z"/><path class="cls-2" d="M67.75,59.55a15,15,0,0,1-6.89,2,6.53,6.53,0,0,0,1.47-4.14,6.61,6.61,0,0,0-6.61-6.61l-.49,0a6.56,6.56,0,0,0-4.65,2.45c-.2-4.15,2.43-8.67,7-11.32.27-.16.55-.31.83-.45,5.89-2.95,12.57-1.75,15.24,2.88C76.48,49.27,73.83,56,67.75,59.55Z"/><path class="cls-2" d="M56.28,14.27l-1.91,5.57a1.31,1.31,0,0,1-1.24.89H46A1.31,1.31,0,0,1,44.78,19l2-5.57A1.31,1.31,0,0,1,48,12.54h7A1.31,1.31,0,0,1,56.28,14.27Z"/><path class="cls-3" d="M56.28,14.27l-1.91,5.57a1.31,1.31,0,0,1-1.24.89H46A1.31,1.31,0,0,1,44.78,19l2-5.57A1.31,1.31,0,0,1,48,12.54h7A1.31,1.31,0,0,1,56.28,14.27Z"/><path class="cls-2" d="M127.76,25.05l-.53,1.79-23,78.42c-1.39,4.74-5.74,10-10.68,10H19.76S6.9,116,9.32,101.54l0-.1c1.55,0,3.44.1,4.15.1H85.16a10.15,10.15,0,0,0,9.7-7.16L119,16.28A12,12,0,0,0,107.76.79L40.68,0a10.17,10.17,0,0,0-9.75,7L23.76,28.47c-3.07-.27-10.56-.14-13.76,7A192.17,192.17,0,0,0,2.44,56.73S-.2,62.73,8,69.09a8,8,0,0,0,1.88,1.13L4,87.71a1.31,1.31,0,0,1,0,.14l-.75,2.58s0,0,0,.06C2.19,94.08.53,100,.29,101.71a1.22,1.22,0,0,0,0,.17s0,.08,0,.12c-.4,2.78-1.82,17.3,11.51,21.53,0,0,1.52,1.24,13.4,1.24H90.68s15.48,1.44,20.88-15.84l20.52-67.68S135.68,28.65,127.76,25.05ZM79,41.37c4.14,7.18.21,17.21-8.78,22.4-6.78,3.92-14.49,4-19.65.68a12.33,12.33,0,0,1-4.15-4.28C42.25,53,46.18,43,55.17,37.77a23.09,23.09,0,0,1,5.35-2.25C68.05,33.41,75.62,35.58,79,41.37ZM41,8.69A2.59,2.59,0,0,1,43.38,7H66.74a2.59,2.59,0,0,1,2.44,3.43L63.24,27.61a33.36,33.36,0,0,0-11.56,4.11C38.5,39.33,32.73,54,38.81,64.55a18.67,18.67,0,0,0,9,7.82L42.16,88.75a2.58,2.58,0,0,1-2.44,1.74H15.46A2.58,2.58,0,0,1,13,87Z"/></g></g></svg>